<?xml version="1.0" encoding="UTF-8"?>
<svg version="1.1" xmlns="http://www.w3.org/2000/svg" width="660" height="577">
<path d="M0 0 C1.61196749 -0.00407886 3.22393218 -0.00942801 4.83589172 -0.01593018 C9.16486717 -0.02946022 13.49362507 -0.02436337 17.8226037 -0.01479292 C22.39133377 -0.00711334 26.96004715 -0.01426539 31.52877808 -0.01895142 C39.20297531 -0.02438841 46.87708555 -0.01727515 54.55126953 -0.00292969 C63.36490261 0.0133578 72.17832698 0.00812837 80.99195492 -0.0084089 C88.61295838 -0.02212482 96.23389984 -0.02389356 103.85491168 -0.0160929 C108.38260927 -0.01146685 112.9102096 -0.01064814 117.43790054 -0.02070236 C163.24456398 -0.10818082 163.24456398 -0.10818082 181.20263672 6.38818359 C182.11835449 6.71149658 183.03407227 7.03480957 183.97753906 7.36791992 C208.7346258 16.4981745 208.7346258 16.4981745 218.20263672 24.38818359 C221.12557243 26.12029364 224.04974369 27.79119286 227.06591797 29.35302734 C229.94586888 30.88859004 232.04995212 32.19606599 234.09326172 34.76708984 C236.27807978 37.48192858 238.48939936 39.29513863 241.26513672 41.38818359 C247.85890108 46.69300732 253.03212208 52.73660082 258.20263672 59.38818359 C258.85063232 60.21793701 258.85063232 60.21793701 259.51171875 61.06445312 C270.38181663 75.1638639 277.92104177 90.42469872 283.20263672 107.38818359 C283.58162109 108.59345703 283.96060547 109.79873047 284.35107422 111.04052734 C289.00590336 126.59745633 290.64620014 140.67920305 290.59082031 156.82324219 C290.59489454 158.83725772 290.60024116 160.85127102 290.60675049 162.86528015 C290.62033042 168.29310281 290.61516376 173.72075281 290.60561323 179.14857817 C290.5979659 184.85675711 290.60507643 190.56492222 290.60977173 196.27310181 C290.61521548 205.85738755 290.60807494 215.44160374 290.59375 225.02587891 C290.57743554 236.06798618 290.58270891 247.10992712 290.59922922 258.15203035 C290.61289471 267.67100542 290.61473882 277.18993076 290.60691321 286.70891249 C290.60226322 292.37720118 290.60153733 298.04541201 290.61152267 303.71369553 C290.62026378 309.04742682 290.61404152 314.38094624 290.5968399 319.71465492 C290.59291248 321.65871773 290.59394381 323.60279873 290.6006279 325.54685402 C290.64955441 341.23794349 288.87146195 355.90311259 284.45263672 371.01318359 C284.06857666 372.33491577 284.06857666 372.33491577 283.67675781 373.68334961 C281.26222201 381.68741209 278.11352587 388.99726597 274.20263672 396.38818359 C273.73470703 397.27860352 273.73470703 397.27860352 273.25732422 398.18701172 C260.02919944 423.11073462 240.79426434 443.19871446 217.20263672 458.38818359 C216.20619141 459.03658203 215.20974609 459.68498047 214.18310547 460.35302734 C200.30728721 468.91139917 185.09551084 474.21470512 169.29101562 477.88720703 C167.31534177 478.36114703 165.35751723 478.90777531 163.40185547 479.45849609 C153.11605463 482.00848281 142.18522746 481.53762743 131.66625977 481.53344727 C130.14204833 481.53644674 128.61783765 481.53985105 127.09362793 481.54362488 C122.98808629 481.55238792 118.88256554 481.55479969 114.77701545 481.55544066 C112.20321233 481.55615544 109.62941439 481.55829776 107.05561256 481.56093788 C98.05163872 481.57016512 89.04767959 481.57427598 80.04370117 481.57348633 C71.69016672 481.57288592 63.33669691 481.58343737 54.98317879 481.59922999 C47.77681418 481.61236171 40.57047055 481.61766789 33.36409408 481.61703092 C29.07522761 481.61677763 24.78641872 481.61953464 20.49756432 481.63020897 C16.45992645 481.63998567 12.42240011 481.63990456 8.384758 481.63269234 C6.91555681 481.63165835 5.44634832 481.63393747 3.9771595 481.6400528 C-9.29001837 481.69163488 -22.11309396 480.41305471 -34.98486328 477.07568359 C-35.83725586 476.8569458 -36.68964844 476.63820801 -37.56787109 476.4128418 C-50.61394684 472.95545817 -63.06000996 466.97715762 -74.7578125 460.26293945 C-80.88477763 457.63510655 -89.95171345 461.20858307 -96.17236328 462.63818359 C-106.26432232 464.90017441 -116.39417639 466.85496747 -126.57226562 468.68798828 C-127.64428223 468.88166992 -128.71629883 469.07535156 -129.82080078 469.27490234 C-130.75843262 469.44207764 -131.69606445 469.60925293 -132.66210938 469.78149414 C-135.13400392 470.25981979 -137.56398852 470.80138762 -140.01342773 471.37719727 C-145.08097652 472.5131058 -150.15757636 473.12306236 -155.31689453 473.67724609 C-156.29671799 473.78539642 -157.27654144 473.89354675 -158.28605652 474.00497437 C-160.34724868 474.23093961 -162.40872341 474.45434081 -164.47045898 474.67529297 C-167.59148994 475.01120609 -170.71099305 475.359336 -173.83056641 475.70849609 C-193.18626901 477.83159304 -193.18626901 477.83159304 -202.79736328 477.38818359 C-202.79736328 477.05818359 -202.79736328 476.72818359 -202.79736328 476.38818359 C-201.98005737 476.29114136 -201.98005737 476.29114136 -201.14624023 476.19213867 C-188.93591832 474.72093948 -176.79434257 472.96908543 -164.67236328 470.88818359 C-163.48940674 470.68684814 -162.3064502 470.4855127 -161.08764648 470.27807617 C-154.25685804 469.08530769 -147.51396572 467.68681307 -140.77587891 466.0480957 C-137.66673693 465.35924236 -134.57615398 464.88836518 -131.42236328 464.45068359 C-126.81828937 463.77974848 -122.42187262 462.83069892 -117.93408203 461.60302734 C-116.60468898 461.24149269 -115.27526058 460.88008796 -113.94580078 460.51879883 C-113.26235596 460.33195526 -112.57891113 460.14511169 -111.87475586 459.9526062 C-109.83810016 459.39925171 -107.7989217 458.85664673 -105.75830078 458.31811523 C-72.11410624 449.43290694 -36.60249299 439.34291265 -5.57519531 423.28710938 C-2.71344853 421.84012343 0.24974273 420.63597729 3.20263672 419.38818359 C16.68169882 413.42215161 29.50914744 406.47068147 42.25634766 399.08325195 C44.32469768 397.89328227 46.40169794 396.71828261 48.48486328 395.55444336 C56.70006286 390.94595904 64.60011911 385.98843947 72.41699219 380.73413086 C74.32978185 379.44924263 76.2482177 378.17314277 78.16748047 376.89794922 C86.04636016 371.64092581 93.6900268 366.16103871 101.20263672 360.38818359 C101.8689209 359.87956787 102.53520508 359.37095215 103.22167969 358.84692383 C135.66050176 336.32408979 135.66050176 336.32408979 155.60888672 304.99365234 C155.88272457 297.93091775 153.86015154 294.53230445 149.20263672 289.38818359 C148.58388672 288.54255859 147.96513672 287.69693359 147.32763672 286.82568359 C144.96413704 284.11461043 142.40640427 281.87345793 139.67529297 279.54052734 C136.62493212 276.88531593 133.66541611 274.14027645 130.70263672 271.38818359 C122.37861064 263.68783934 113.87103895 256.46517563 104.82568359 249.62158203 C103.35525082 248.50415929 101.89548172 247.37273832 100.43701172 246.23974609 C90.71752968 238.7696299 80.46459937 232.08275977 70.20263672 225.38818359 C69.15849609 224.7053833 69.15849609 224.7053833 68.09326172 224.00878906 C32.67426529 200.98104215 -5.98756495 182.47793421 -45.79736328 168.38818359 C-46.55452637 168.11844727 -47.31168945 167.84871094 -48.09179688 167.57080078 C-53.98174036 165.47499267 -59.88574334 163.42194946 -65.79736328 161.38818359 C-66.93842529 160.99348877 -66.93842529 160.99348877 -68.10253906 160.59082031 C-80.21257172 156.4144898 -92.45490957 152.81236121 -104.79736328 149.38818359 C-100.79561892 147.8288545 -97.2203091 148.94477687 -93.20751953 149.89990234 C-92.46714951 150.06939896 -91.72677948 150.23889557 -90.963974 150.41352844 C-89.39368347 150.7750295 -87.82440757 151.14096233 -86.25610352 151.51098633 C-83.90170364 152.06582351 -81.54435376 152.6061374 -79.18603516 153.14404297 C-71.1958051 154.98677754 -63.33937772 157.03343043 -55.52124023 159.52416992 C-52.15641835 160.5914913 -48.77698145 161.50328825 -45.35986328 162.38818359 C-33.17866414 165.54993169 -21.19092747 169.14569031 -9.29736328 173.26318359 C-7.49332031 173.87613281 -7.49332031 173.87613281 -5.65283203 174.50146484 C1.71396176 177.04146571 8.87489502 179.88308784 16.01416016 183.00439453 C20.16162042 184.80437958 24.36368913 186.43974494 28.57763672 188.07568359 C39.49655 192.37303979 50.10681879 197.30670196 60.74023438 202.25952148 C62.7160953 203.16517338 64.7123292 204.02631835 66.71435547 204.87255859 C71.63488889 207.01048353 76.40893621 209.41916862 81.20263672 211.82568359 C82.16169922 212.30328125 83.12076172 212.78087891 84.10888672 213.27294922 C89.23509539 215.8395743 94.24480555 218.51184094 99.20263672 221.38818359 C100.65211914 222.18412745 102.10413302 222.97547172 103.55810547 223.76318359 C112.409115 228.56565882 121.18272653 233.47243283 129.82763672 238.63818359 C130.61936279 239.10869141 131.41108887 239.57919922 132.22680664 240.06396484 C137.18278031 243.05013003 141.93410556 246.25291625 146.65380859 249.59863281 C150.92340693 252.59634888 155.28770637 255.45024982 159.64013672 258.32568359 C166.95600081 263.18507497 174.17969527 268.11094473 181.20263672 273.38818359 C182.48882215 274.34427999 183.77530526 275.29997601 185.06201172 276.25537109 C192.55183573 281.82933635 200.01597423 287.42508204 207.20263672 293.38818359 C208.23388672 294.19255859 209.26513672 294.99693359 210.32763672 295.82568359 C212.71488845 299.08826096 212.69016 301.25283468 212.57373047 305.20458984 C211.75322296 310.03262876 209.53840881 312.22399311 205.70263672 315.13818359 C204.90857422 315.75177734 204.11451172 316.36537109 203.29638672 316.99755859 C201.20263672 318.38818359 201.20263672 318.38818359 199.20263672 318.38818359 C199.20263672 319.04818359 199.20263672 319.70818359 199.20263672 320.38818359 C197.66479492 321.74169922 197.66479492 321.74169922 195.50341797 323.29443359 C194.71298096 323.86830811 193.92254395 324.44218262 193.1081543 325.03344727 C192.2524585 325.64551025 191.3967627 326.25757324 190.51513672 326.88818359 C188.75386671 328.16435045 186.99345182 329.4416983 185.23388672 330.72021484 C184.36892578 331.34750488 183.50396484 331.97479492 182.61279297 332.62109375 C179.5309985 334.8806185 176.52232226 337.21777675 173.51513672 339.57568359 C166.29288291 345.16563509 158.77616644 350.28881248 151.20263672 355.38818359 C150.48946289 355.8704541 149.77628906 356.35272461 149.04150391 356.84960938 C131.65957493 368.59384182 114.01040386 379.71888863 95.70898438 389.97851562 C93.35993831 391.29971102 91.02045603 392.63628186 88.68310547 393.97802734 C77.77668196 400.19685881 66.56492464 405.64013349 55.20214844 410.97070312 C52.15218886 412.41202376 49.11550921 413.87836401 46.08154297 415.35302734 C28.26351309 424.00310111 28.26351309 424.00310111 19.37060547 427.23583984 C17.04003237 428.08358222 14.74116834 428.96106329 12.44091797 429.88427734 C3.3289934 433.53227073 -5.87652045 436.90115306 -15.1418457 440.13735962 C-16.4467793 440.59376666 -17.75083063 441.0527046 -19.05395508 441.51425171 C-20.89920462 442.16644281 -22.74861846 442.80681452 -24.59814453 443.44677734 C-25.67233643 443.82116943 -26.74652832 444.19556152 -27.85327148 444.58129883 C-30.66429752 445.35171437 -32.9028681 445.55443392 -35.79736328 445.38818359 C-35.79736328 446.04818359 -35.79736328 446.70818359 -35.79736328 447.38818359 C-31.33280799 448.30761676 -26.84901831 449.10033884 -22.35986328 449.88818359 C-21.25288086 450.08347656 -21.25288086 450.08347656 -20.12353516 450.28271484 C-18.01522779 450.65377694 -15.90691331 451.02424632 -13.79736328 451.38818359 C-12.89503684 451.55784228 -11.9927104 451.72750097 -11.06304073 451.90230083 C-7.78464858 452.39007535 -4.69699267 452.52248723 -1.38417053 452.53535461 C-0.1133815 452.54250992 1.15740753 452.54966522 2.46670532 452.55703735 C3.86297583 452.5598773 5.2592466 452.56258906 6.65551758 452.56518555 C8.13630836 452.5714574 9.61709759 452.57810483 11.09788513 452.58509827 C15.9544059 452.60608218 20.81092672 452.61650591 25.66748047 452.62646484 C27.34910154 452.63051666 29.03072246 452.63463371 30.71234322 452.63881493 C38.6279679 452.65786626 46.54358336 452.6720888 54.45922655 452.6804269 C63.53915867 452.69015307 72.61884401 452.71635079 81.6986894 452.75692779 C88.74964418 452.78733361 95.80052931 452.80191926 102.85154825 452.80520791 C107.04583212 452.80753372 111.2398525 452.81616273 115.43406487 452.84166908 C137.57137414 452.96933641 159.83887463 452.91825333 180.76513672 444.63818359 C181.66731934 444.29456787 182.56950195 443.95095215 183.49902344 443.59692383 C204.12865891 435.49887901 221.71536063 421.89755808 235.20263672 404.38818359 C235.88326172 403.52322266 236.56388672 402.65826172 237.26513672 401.76708984 C251.58394827 382.94568325 261.38605799 358.91828488 261.33634949 335.11271667 C261.33861504 334.30680897 261.3408806 333.50090126 261.34321481 332.6705721 C261.34951811 329.98422403 261.34872779 327.29792689 261.34790039 324.61157227 C261.35089436 322.67917822 261.35429744 320.74678476 261.358078 318.81439209 C261.36690261 313.57202646 261.3692556 308.32967717 261.36989379 303.08730483 C261.3706057 299.80510715 261.37274279 296.52291359 261.37539101 293.24071693 C261.3846426 281.76944339 261.38872653 270.29818145 261.38793945 258.8269043 C261.3873402 248.17014865 261.39786242 237.51344387 261.41368312 226.85670108 C261.42681228 217.68267906 261.43212103 208.50867355 261.43148404 199.33464223 C261.43123043 193.86686211 261.4340048 188.39912712 261.44466209 182.93135643 C261.45443273 177.77752807 261.45436163 172.62378711 261.44714546 167.46995544 C261.44611033 165.59242943 261.44839762 163.71489772 261.45450592 161.83738136 C261.50200152 146.20880616 261.35995238 130.27894265 255.89013672 115.45068359 C255.42003174 114.12025024 255.42003174 114.12025024 254.94042969 112.76293945 C249.20411942 96.76977712 241.07813367 83.39518106 230.20263672 70.38818359 C229.43951172 69.37755859 228.67638672 68.36693359 227.89013672 67.32568359 C207.33053823 44.85356432 176.42254486 30.91592309 146.2595787 29.15843582 C136.05205841 28.7696542 125.83026047 28.84344219 115.61736465 28.88381314 C111.161112 28.8978812 106.70487842 28.89117973 102.24861145 28.88768005 C94.77757175 28.88499622 87.3066944 28.89829936 79.83569336 28.92163086 C71.24449648 28.94827787 62.65356979 28.94996526 54.06234568 28.9382425 C45.72971907 28.92740309 37.39718851 28.93369671 29.06456947 28.94779778 C25.54787184 28.95349951 22.03124586 28.95352155 18.51454735 28.94873238 C14.36506603 28.94390197 10.21587457 28.95431021 6.06644821 28.97568703 C4.55938888 28.98117183 3.0523012 28.98179858 1.5452404 28.97673416 C-12.40995722 28.93577567 -26.34091362 30.41962266 -39.42236328 35.57568359 C-40.20812744 35.87684082 -40.9938916 36.17799805 -41.8034668 36.48828125 C-70.8765108 47.94798702 -94.64879749 69.50497282 -108.79736328 97.38818359 C-109.55533203 98.86738281 -109.55533203 98.86738281 -110.32861328 100.37646484 C-117.51349612 115.09447739 -120.62002507 130.26171926 -122.79736328 146.38818359 C-131.86426876 144.66853445 -140.82364579 142.53271469 -149.79736328 140.38818359 C-150.13406837 132.90236809 -148.92527292 126.38612716 -147.10986328 119.13818359 C-146.83513184 118.02644775 -146.56040039 116.91471191 -146.27734375 115.76928711 C-144.31530812 108.02055288 -142.15596655 100.66045341 -138.79736328 93.38818359 C-138.38429932 92.48011963 -138.38429932 92.48011963 -137.96289062 91.55371094 C-133.19036618 81.17069855 -127.45614852 71.6651203 -120.79736328 62.38818359 C-120.18634766 61.53095703 -119.57533203 60.67373047 -118.94580078 59.79052734 C-109.26761516 47.02129125 -97.00733277 35.42300098 -83.79736328 26.38818359 C-83.18425293 25.96843262 -82.57114258 25.54868164 -81.93945312 25.11621094 C-69.4795973 16.71465447 -56.56492063 10.78499021 -42.29736328 6.13818359 C-41.58733154 5.90389648 -40.8772998 5.66960938 -40.14575195 5.42822266 C-26.82610617 1.29244223 -13.84181177 -0.05995008 0 0 Z " fill="#1697D5" transform="translate(270.79736328125,46.61181640625)"/>
<path d="M0 0 C4.85158466 -0.20645041 8.93943938 0.34325669 13.6484375 1.4921875 C16.83027328 2.17929489 20.00995893 2.47827776 23.25 2.75390625 C25 3 25 3 26 4 C28.1560354 4.28595838 30.31270393 4.44752485 32.48046875 4.62109375 C35 5 35 5 37.80053711 5.94042969 C40.76345774 6.92166399 43.66416842 7.66572704 46.7109375 8.33203125 C47.7834375 8.57074951 48.8559375 8.80946777 49.9609375 9.05541992 C51.08757812 9.30525635 52.21421875 9.55509277 53.375 9.8125 C63.44828987 12.08808416 73.20176132 14.75345441 83 18 C84.74821863 18.50619325 86.49803862 19.00691653 88.25 19.5 C92.82027793 20.86200336 97.14175573 22.66914877 101.5234375 24.54296875 C106.42209434 26.59600134 111.37482001 28.50164669 116.33007812 30.41308594 C117.80010959 30.98066311 119.26941405 31.55012632 120.73803711 32.12133789 C122.24460975 32.70656778 123.75325105 33.28650021 125.26391602 33.86108398 C132.92184862 36.83080803 140.30116518 40.35879166 147.6875 43.9375 C148.3630896 44.26403564 149.0386792 44.59057129 149.73474121 44.92700195 C166.39629729 53.00218048 182.43955566 61.95929737 198 72 C199.55267578 72.99580078 199.55267578 72.99580078 201.13671875 74.01171875 C209.01587006 79.18806777 216.54833084 84.77500937 224.03466797 90.50048828 C225.86114948 91.89405964 227.69718239 93.27399305 229.53515625 94.65234375 C239.33345456 102.0847149 248.17331973 110.45198367 257 119 C257.78141357 119.74854248 257.78141357 119.74854248 258.57861328 120.51220703 C269.39394495 130.87295383 269.39394495 130.87295383 269.5625 137.75 C269.09530492 149.09616614 257.70490066 158.51858403 250 166 C249.34 166 248.68 166 248 166 C248 166.66 248 167.32 248 168 C246.70703125 169.33984375 246.70703125 169.33984375 244.8125 170.9375 C243.70068359 171.87916016 243.70068359 171.87916016 242.56640625 172.83984375 C241.71949219 173.55269531 240.87257813 174.26554688 240 175 C239.10152344 175.78503906 238.20304687 176.57007813 237.27734375 177.37890625 C221.56728194 191.04900481 204.61496418 202.93212101 187 214 C186.38044434 214.39268066 185.76088867 214.78536133 185.12255859 215.18994141 C171.82575584 223.61137678 158.09060418 231.10314205 143.96484375 238.02490234 C142.05866958 238.97088391 140.16853569 239.94273683 138.28125 240.92578125 C127.43659271 246.54005073 116.23781096 251.19596512 104.93164062 255.796875 C101.97033913 257.01217262 99.024947 258.26178637 96.078125 259.51171875 C89.80090853 262.1299439 83.42917365 264.41067653 77 266.625 C75.91460937 267.0065625 74.82921875 267.388125 73.7109375 267.78125 C67.38812138 269.96933672 61.08121577 271.83020297 54.56469727 273.35107422 C52.27174875 273.93124149 50.13487419 274.6328495 47.9375 275.5 C41.34302508 278.0969994 34.56512259 279.81818672 27.5625 280.875 C22.01276764 281.72437538 16.6727709 283.07721406 11.25 284.5 C3.47891235 286.53024443 -4.11712952 287.84418041 -12.10546875 288.640625 C-14.89016343 288.68529809 -14.89016343 288.68529809 -16 290 C-18.2647503 290.37232139 -20.53936994 290.68486674 -22.81640625 290.97265625 C-23.50629135 291.06002548 -24.19617645 291.14739471 -24.90696716 291.2374115 C-26.3736636 291.42189453 -27.84063966 291.60416562 -29.30786133 291.78442383 C-31.52972466 292.05845765 -33.75019352 292.34218359 -35.97070312 292.62695312 C-37.39836342 292.80528155 -38.82609589 292.98303333 -40.25390625 293.16015625 C-41.54627197 293.32136963 -42.8386377 293.48258301 -44.17016602 293.64868164 C-48.15691981 294.01439457 -52.00015203 294.05971581 -56 294 C-56 293.67 -56 293.34 -56 293 C-55.42609528 292.8858223 -54.85219055 292.77164459 -54.26089478 292.65400696 C-48.1901893 291.44484707 -42.12146185 290.22609515 -36.05371094 289.00219727 C-33.80060636 288.54897735 -31.54703704 288.09806056 -29.29296875 287.6496582 C-15.68430243 284.94063766 -2.31226119 281.9136059 11 278 C12.94812706 277.46346815 14.89721118 276.93038684 16.84765625 276.40234375 C40.04709747 269.95064799 62.91995789 261.60590067 85 252 C86.3303125 251.42185547 86.3303125 251.42185547 87.6875 250.83203125 C89.09015847 250.21362946 90.49052078 249.58993421 91.88647461 248.95654297 C93.96200081 248.01719774 96.04455553 247.09535481 98.12890625 246.17578125 C134.39324723 230.05788496 176.65619449 209.34380551 205 181 C204.50935059 181.32572998 204.01870117 181.65145996 203.51318359 181.98706055 C175.88805279 200.27092974 147.19535168 216.02442234 117.15380859 229.99072266 C115.26688052 230.87493946 113.39210654 231.78499849 111.51953125 232.69921875 C103.61507966 236.51619727 95.48290963 239.38066057 87.1875 242.20703125 C83.00699437 243.63568312 78.87199977 245.16110696 74.74194336 246.72875977 C66.55701049 249.82797468 58.3627208 252.42702279 49.90625 254.671875 C46.17912854 255.6643222 42.47903342 256.73140117 38.78125 257.828125 C37.17382935 258.30475586 37.17382935 258.30475586 35.53393555 258.79101562 C33.43281475 259.41649516 31.33266481 260.04524809 29.23364258 260.67773438 C24.14956687 262.18437797 19.2766526 263.43912504 14 264 C16.3403509 261.6596491 18.09366359 261.10401315 21.20703125 260.01171875 C22.78919434 259.45097656 22.78919434 259.45097656 24.40332031 258.87890625 C25.52834961 258.48574219 26.65337891 258.09257812 27.8125 257.6875 C30.11618499 256.86933259 32.41957422 256.0503319 34.72265625 255.23046875 C36.37225342 254.64531494 36.37225342 254.64531494 38.05517578 254.04833984 C55.41333773 247.8689378 72.34062622 240.5803092 88.72363281 232.15576172 C91.33288206 230.83098845 93.95806048 229.54132733 96.5859375 228.25390625 C133.65065347 210.05063173 170.66390987 188.09988533 201.03125 159.8125 C202.71925815 158.25846075 204.43887869 156.84204306 206.25 155.4375 C210.90482621 151.31163131 215.39587955 146.37555814 216.2734375 140.01953125 C216.56786537 133.62138724 214.88785675 129.99574205 211 125 C210.54238281 124.40316406 210.08476562 123.80632812 209.61328125 123.19140625 C206.47464251 119.33045065 202.96138022 116.07581293 199.171875 112.86328125 C196.88880599 110.90460514 194.70133397 108.86239992 192.5 106.8125 C186.32354436 101.24232222 179.67477217 96.34386515 172.96679688 91.44042969 C171.20459537 90.1498402 169.45281987 88.84651503 167.703125 87.5390625 C137.03054693 65.02090153 102.80776852 48.0713041 68 33 C66.79375977 32.46987305 65.58751953 31.93974609 64.34472656 31.39355469 C57.72730603 28.50812408 51.14493126 25.88645757 44.25 23.75 C36.26442308 21.26442308 36.26442308 21.26442308 34 19 C40.36914846 19.60799787 46.19056662 21.04744155 52.3125 22.875 C54.17950688 23.42249131 56.04669262 23.96937308 57.9140625 24.515625 C58.79739258 24.77537109 59.68072266 25.03511719 60.59082031 25.30273438 C63.44359464 26.12838531 66.31183571 26.88342468 69.1875 27.625 C73.47697864 28.77699268 77.51031841 30.32975481 81.609375 32.03125 C86.23784116 33.90683759 91.00729189 35.37973452 95.7734375 36.86328125 C102.30042696 38.94472277 108.43185094 41.45790177 114.6015625 44.4375 C117.21352115 45.63840053 119.79012616 46.70160983 122.46875 47.73046875 C128.79332492 50.23298131 134.84251096 53.27118123 140.91259766 56.32592773 C142.86197951 57.30595412 144.81546611 58.27739853 146.76953125 59.24804688 C154.70039224 63.20972187 162.40245073 67.42321647 170 72 C143.57530106 54.14989391 115.42657507 40.13497418 86 28 C83.7990297 27.08702031 81.59849204 26.17299675 79.3984375 25.2578125 C78.44243652 24.86094238 77.48643555 24.46407227 76.50146484 24.05517578 C74.50812888 23.21434052 72.53200633 22.33273015 70.5625 21.4375 C66.47635365 19.7887041 62.34635175 18.54587404 58.125 17.2890625 C55.01229452 16.34002904 51.94401514 15.29273164 48.875 14.2109375 C32.80452835 8.58979513 16.61514013 4.61020329 0 1 C0 0.67 0 0.34 0 0 Z " fill="#1892D1" transform="translate(109,211)"/>
<path d="M0 0 C0.8228952 -0.00295074 1.64579041 -0.00590149 2.49362183 -0.00894165 C16.4909367 -0.02028209 29.74888552 1.2722082 43.4375 4.3125 C44.68402344 4.55097656 45.93054688 4.78945312 47.21484375 5.03515625 C55.9820166 6.80984457 64.14696866 10.03301767 72.4375 13.3125 C73.30890625 13.64121094 74.1803125 13.96992187 75.078125 14.30859375 C93.19743809 21.24200437 108.96588498 30.66074024 124.4375 42.3125 C125.20578125 42.88613281 125.9740625 43.45976562 126.765625 44.05078125 C131.68779732 47.79404167 136.31072131 51.79766739 140.87109375 55.97265625 C142.63751286 57.58313577 144.42262331 59.17327394 146.22265625 60.74609375 C147.11855469 61.53113281 148.01445312 62.31617188 148.9375 63.125 C150.15953125 64.18654297 150.15953125 64.18654297 151.40625 65.26953125 C153.36936995 67.24397689 154.27749234 68.82477665 155.4375 71.3125 C152.69477652 73.9451925 149.94211487 76.56725659 147.1875 79.1875 C146.41019531 79.93386719 145.63289063 80.68023437 144.83203125 81.44921875 C143.70087891 82.52236328 143.70087891 82.52236328 142.546875 83.6171875 C141.85561523 84.27702637 141.16435547 84.93686523 140.45214844 85.61669922 C138.51999022 87.24306507 136.73893238 88.29716219 134.4375 89.3125 C134.4375 89.9725 134.4375 90.6325 134.4375 91.3125 C129.90370945 89.46540015 126.99246219 86.04023576 123.78515625 82.4765625 C111.04995535 68.90916035 94.68125937 59.09710596 78.4375 50.3125 C77.41527344 49.75691406 76.39304687 49.20132813 75.33984375 48.62890625 C70.95169727 46.34327199 66.57039539 44.52685947 61.8359375 43.0859375 C59.77209357 42.42039825 57.73918712 41.66026231 55.71484375 40.8828125 C48.15024444 38.02722014 40.29593801 36.16966689 32.4375 34.3125 C31.73351074 34.14153809 31.02952148 33.97057617 30.30419922 33.79443359 C-13.40423606 23.65441356 -62.37822748 34.28981671 -100.01171875 57.62890625 C-115.85571908 67.85279072 -115.85571908 67.85279072 -129.5390625 80.6015625 C-131.5625 82.3125 -131.5625 82.3125 -134.015625 82.40625 C-135.40007812 82.11234375 -135.40007812 82.11234375 -136.8125 81.8125 C-138.38257813 81.48185547 -138.38257813 81.48185547 -139.984375 81.14453125 C-141.75554687 80.73267578 -141.75554687 80.73267578 -143.5625 80.3125 C-144.96328577 80.02349648 -146.3643391 79.73578746 -147.765625 79.44921875 C-149.19851876 79.13555046 -150.63082127 78.81916821 -152.0625 78.5 C-152.74473633 78.35949219 -153.42697266 78.21898437 -154.12988281 78.07421875 C-158.8350251 76.95116142 -160.94507906 75.35214201 -163.5625 71.3125 C-159.95256275 62.98906954 -151.27065441 57.07563032 -144.3671875 51.55859375 C-142.54039738 50.09563509 -140.73183051 48.60953045 -138.9453125 47.09765625 C-121.88283839 32.6932827 -102.24399592 21.6181447 -81.5625 13.3125 C-79.96341797 12.65507813 -79.96341797 12.65507813 -78.33203125 11.984375 C-62.40408875 5.85376619 -44.82144036 1.72080224 -27.78515625 0.76953125 C-27.05200699 0.72810501 -26.31885773 0.68667877 -25.56349182 0.64399719 C-17.04524591 0.19308662 -8.52934506 0.02733799 0 0 Z " fill="#14A6DC" transform="translate(344.5625,113.6875)"/>
<path d="M0 0 C8.88954342 3.39130309 16.87611826 9.82277307 24.7265625 15.125 C27.91412877 17.27678009 31.12210802 19.38520222 34.375 21.4375 C39.66747731 24.77925084 44.93143946 28.1638479 50.1875 31.5625 C51.0316748 32.10511475 51.87584961 32.64772949 52.74560547 33.20678711 C56.6767229 35.75324587 60.5167483 38.34568407 64.23828125 41.19140625 C67.35542892 43.56963393 70.5209865 45.54851791 74 47.375 C75.423125 48.12910156 75.423125 48.12910156 76.875 48.8984375 C77.57625 49.26195312 78.2775 49.62546875 79 50 C79 50.66 79 51.32 79 52 C79.556875 52.04125 80.11375 52.0825 80.6875 52.125 C84.30768581 53.49480004 86.36742164 55.57352131 88 59 C88.86817631 64.42424684 88.73872467 69.22034511 86.625 74.3125 C80.02441521 81.07024157 71.27292042 85.8089687 63.3125 90.8125 C56.9940813 94.80685414 50.6969406 98.81934338 44.5 103 C37.40247693 107.78542082 30.17713969 112.36296952 22.9440918 116.94018555 C16.94072867 120.74492668 11.00405925 124.62093149 5.14453125 128.64453125 C0.67099275 131.47206833 -3.86201888 131.63344973 -9 131 C-14.08290618 128.41059496 -17.40141172 124.98110762 -20.09121704 119.96505737 C-21.41627425 115.64183519 -21.29484826 111.49451487 -21.29052734 106.99658203 C-21.29724457 105.99272461 -21.30396179 104.98886719 -21.31088257 103.95458984 C-21.32986689 100.63894693 -21.33378694 97.32350637 -21.3359375 94.0078125 C-21.34236487 91.70002153 -21.34909319 89.39223139 -21.35610962 87.08444214 C-21.3680833 82.24751903 -21.37179032 77.41066735 -21.37060547 72.57373047 C-21.37040222 66.38083367 -21.39771029 60.18839548 -21.43214989 53.99560738 C-21.45440449 49.22917585 -21.45844345 44.46285496 -21.45738602 39.6963768 C-21.45974391 37.41345514 -21.46857797 35.13053051 -21.48405075 32.84766006 C-21.50368183 29.6521837 -21.49788348 26.45769993 -21.48583984 23.26220703 C-21.50269836 21.85302505 -21.50269836 21.85302505 -21.51989746 20.41537476 C-21.45546467 13.67584401 -20.08902443 9.29594473 -15.3671875 4.2578125 C-10.17074537 0.31286952 -6.57890949 -0.98089163 0 0 Z " fill="#1882C8" transform="translate(212,282)"/>
<path d="M0 0 C1.21429688 0.25007812 2.42859375 0.50015625 3.6796875 0.7578125 C10.8096223 2.36899257 17.33445416 5.03649645 24 8 C24.72316406 8.29519531 25.44632813 8.59039062 26.19140625 8.89453125 C46.53124584 17.34695036 64.73950951 31.24354357 80 47 C76.31864988 55.58335844 65.48774458 65.1214942 57 69 C56.21238281 68.16597656 55.42476562 67.33195312 54.61328125 66.47265625 C39.29562366 50.52488701 18.94900844 37.10665596 -2.8125 31.9375 C-3.46025391 31.77701172 -4.10800781 31.61652344 -4.77539062 31.45117188 C-6.84583337 30.9462353 -8.921735 30.47163968 -11 30 C-11.75547119 29.81614746 -12.51094238 29.63229492 -13.28930664 29.44287109 C-20.15518522 27.88820195 -26.79019836 27.69061911 -33.8125 27.75 C-34.96669434 27.75676758 -36.12088867 27.76353516 -37.31005859 27.77050781 C-45.08547245 27.8651019 -52.40168268 28.2626712 -60 30 C-61.21816406 30.24492187 -62.43632812 30.48984375 -63.69140625 30.7421875 C-72.30247872 32.5896965 -80.00646259 35.49564606 -87.88549805 39.44580078 C-88.59617432 39.78981934 -89.30685059 40.13383789 -90.0390625 40.48828125 C-90.65990723 40.80321533 -91.28075195 41.11814941 -91.92041016 41.44262695 C-96.71037069 42.72643535 -101.57955644 40.58515249 -106.09765625 39.00390625 C-107.22880859 38.61009766 -108.35996094 38.21628906 -109.52539062 37.81054688 C-110.69263672 37.39869141 -111.85988281 36.98683594 -113.0625 36.5625 C-114.23361328 36.15451172 -115.40472656 35.74652344 -116.61132812 35.32617188 C-121.44611827 33.63551223 -126.25609367 31.9333882 -131 30 C-127.45748302 26.22529557 -123.77488078 23.30786508 -119.375 20.5625 C-118.76108398 20.17489502 -118.14716797 19.78729004 -117.51464844 19.38793945 C-81.88485502 -2.89685998 -40.85551253 -8.83771903 0 0 Z " fill="#188FD0" transform="translate(376,176)"/>
<path d="M0 0 C6.60670078 1.76664945 13.17014633 3.61521944 19.6875 5.6875 C20.40099609 5.91244141 21.11449219 6.13738281 21.84960938 6.36914062 C23.56700398 6.91086912 25.28359514 7.45514375 27 8 C27.00146656 8.70639681 27.00293312 9.41279362 27.00444412 10.14059639 C27.04170424 27.43134854 27.10096941 44.72189022 27.18390274 62.0124836 C27.22349533 70.37453605 27.25598719 78.73649709 27.27099609 87.09863281 C27.28411633 94.39799641 27.31134012 101.69715719 27.35461307 108.99640644 C27.37699821 112.85143457 27.39292478 116.70621475 27.39188385 120.56131363 C27.39246902 152.68149487 31.70858231 181.01111977 48.71484375 208.70703125 C50 211 50 211 50 213 C49.16807129 213.34780518 49.16807129 213.34780518 48.31933594 213.70263672 C45.79562592 214.75866845 43.27280684 215.81681252 40.75 216.875 C39.44095703 217.42220703 39.44095703 217.42220703 38.10546875 217.98046875 C37.26113281 218.33496094 36.41679687 218.68945312 35.546875 219.0546875 C34.77182617 219.37937012 33.99677734 219.70405273 33.19824219 220.03857422 C30.98950865 220.9701846 30.98950865 220.9701846 28.90332031 222.12158203 C27 223 27 223 24 223 C18.68580506 213.8767198 13.74928385 204.89979445 10 195 C9.66613281 194.20464844 9.33226562 193.40929687 8.98828125 192.58984375 C3.56413997 179.06164948 -0.13207919 162.85364352 -0.12025452 148.27381897 C-0.12162918 146.96000244 -0.12300385 145.64618591 -0.12442017 144.29255676 C-0.1208819 142.85397316 -0.11724711 141.41538978 -0.11352539 139.97680664 C-0.11324305 138.44869997 -0.11340216 136.92059316 -0.1139679 135.39248657 C-0.11425405 131.25872343 -0.1083867 127.12498948 -0.10139394 122.99123311 C-0.09513014 118.66574201 -0.09455421 114.34025019 -0.09336853 110.01475525 C-0.09026413 101.83035189 -0.08206276 93.64596194 -0.07201904 85.46156448 C-0.06083022 76.14114602 -0.05534048 66.8207269 -0.05032361 57.50030339 C-0.0398794 38.333528 -0.02229723 19.16676508 0 0 Z " fill="#193DAC" transform="translate(120,234)"/>
<path d="M0 0 C14.29627398 -0.20685927 28.4202759 0.07223999 42.48196411 2.82557678 C46.66999017 3.63373291 50.81652807 4.23482327 55.06233215 4.6317749 C65.38960655 5.59958585 75.44040053 7.49984151 85.57592773 9.66650391 C88.29758138 10.24681903 91.02240658 10.8098388 93.74804688 11.37109375 C105.55254026 13.83878927 117.11527819 16.87189866 128.67276001 20.30932617 C130.78537624 20.93630437 132.90061303 21.55255378 135.01831055 22.16210938 C138.41117679 23.13935092 141.79975625 24.13017011 145.1875 25.125 C146.29673828 25.44597656 147.40597656 25.76695312 148.54882812 26.09765625 C154.41925626 27.82445673 160.1096057 29.73409261 165.76342773 32.07568359 C168.95569539 33.39496373 172.19372991 34.56282903 175.4375 35.75 C184.05321333 38.94042285 192.50429115 42.50392973 200.94799805 46.12133789 C202.72087702 46.88048024 204.4968748 47.63233136 206.2734375 48.3828125 C220.51198743 54.49731398 234.81934378 60.76462245 248.06884766 68.83642578 C250.43076145 70.25954603 252.81438864 71.6429748 255.19921875 73.02734375 C266.0491921 79.34287442 276.68429073 85.84511584 287 93 C287.65742188 93.45165527 288.31484375 93.90331055 288.9921875 94.36865234 C310.01430672 108.8312754 329.69696116 124.58246475 347.8125 142.5625 C348.69147949 143.43213379 349.57045898 144.30176758 350.47607422 145.19775391 C351.70414795 146.43211182 351.70414795 146.43211182 352.95703125 147.69140625 C354.05494995 148.79270874 354.05494995 148.79270874 355.17504883 149.91625977 C358.06324639 153.21402113 359.29727604 155.9366412 359.375 160.3125 C359.40335937 161.03050781 359.43171875 161.74851562 359.4609375 162.48828125 C358.30779872 168.77191039 353.95124059 173.4949035 349.52734375 177.8359375 C349.00419083 178.35958893 348.4810379 178.88324036 347.94203186 179.42276001 C346.8387297 180.52373649 345.73176938 181.62105823 344.62133789 182.71484375 C342.95745176 184.35532884 341.30709136 186.00851856 339.65820312 187.6640625 C333.09245253 194.21229951 326.29997123 200.26542169 319 206 C317.83142828 206.94196079 316.66336491 207.88455304 315.49609375 208.828125 C300.89716175 220.38794345 285.7973693 231.1382599 270 241 C269.3915625 241.38075684 268.783125 241.76151367 268.15625 242.15380859 C246.2822783 255.7590832 223.04284078 268.68763209 199 278 C197.34858969 278.65792963 195.69758994 279.31689017 194.046875 279.9765625 C183.71529489 284.08488494 173.33093445 288.03162651 162.875 291.8125 C161.88153564 292.17311523 160.88807129 292.53373047 159.86450195 292.90527344 C147.72207958 297.25678792 135.35226332 300.82821291 122.9375 304.3125 C122.29079346 304.4988501 121.64408691 304.6852002 120.9777832 304.87719727 C119.08032108 305.42363409 117.178873 305.95617015 115.27734375 306.48828125 C113.61046509 306.96068237 113.61046509 306.96068237 111.90991211 307.44262695 C109.10645185 307.9796099 107.63894709 307.97582933 105 307 C105.91587891 306.69819824 106.83175781 306.39639648 107.77539062 306.08544922 C111.25808216 304.93685667 114.73933092 303.78394065 118.22021484 302.62988281 C119.71105113 302.13623687 121.2022481 301.64367857 122.69384766 301.15234375 C138.72528526 295.8698714 154.3742114 290.01613114 169.8125 283.1875 C170.5058847 282.8821936 171.19926941 282.57688721 171.91366577 282.2623291 C183.03312586 277.36570368 194.12234667 272.41754702 205 267 C205.71172363 266.64615234 206.42344727 266.29230469 207.15673828 265.92773438 C231.23471109 253.84313558 254.23544515 239.86179557 276 224 C276.76119141 223.44973145 277.52238281 222.89946289 278.30664062 222.33251953 C287.94801567 215.34360349 297.07510139 207.87843286 306 200 C306.85851562 199.25363281 307.71703125 198.50726563 308.6015625 197.73828125 C328.04752415 181.84646801 328.04752415 181.84646801 338.5 160.25 C338.19723335 150.77725721 328.5805597 143.13955333 322.3125 137 C321.41837402 136.11642822 320.52424805 135.23285645 319.60302734 134.32250977 C313.65101295 128.4900985 307.63661242 123.04462143 301 118 C299.95230455 117.16541801 298.90686773 116.32799555 297.86328125 115.48828125 C273.61681587 96.04118148 247.43014628 78.81697456 219.46435547 65.20117188 C217.7063231 64.34427478 215.95035862 63.48312975 214.19580078 62.61914062 C199.68095289 55.47612756 185.04751794 48.93498777 170 43 C168.22349475 42.29283014 166.44744735 41.58450896 164.671875 40.875 C163.89038086 40.56304687 163.10888672 40.25109375 162.30371094 39.9296875 C159.92460257 38.96957255 157.55590504 37.98617747 155.1875 37 C150.42538891 35.09217459 145.58188008 33.57828646 140.6640625 32.125 C137.53028784 31.16281759 134.43251289 30.13756215 131.328125 29.0859375 C125.30969869 27.07016094 119.24360572 25.3084 113.125 23.625 C112.04347656 23.32609863 110.96195312 23.02719727 109.84765625 22.71923828 C107.62953185 22.10665977 105.41110913 21.49516043 103.19238281 20.88476562 C100.24616999 20.06822576 97.30601814 19.23327797 94.3671875 18.390625 C80.70922158 14.50918659 66.95777586 11.58419524 53 9 C52.05576172 8.82227051 51.11152344 8.64454102 50.13867188 8.46142578 C33.51057767 5.35023106 16.77589909 3.13277654 0 1 C0 0.67 0 0.34 0 0 Z " fill="#1A97D2" transform="translate(52,189)"/>
<path d="M0 0 C6.36914846 0.60799787 12.19056662 2.04744155 18.3125 3.875 C20.17950688 4.42249131 22.04669262 4.96937308 23.9140625 5.515625 C24.79739258 5.77537109 25.68072266 6.03511719 26.59082031 6.30273438 C29.44359464 7.12838531 32.31183571 7.88342468 35.1875 8.625 C39.47697864 9.77699268 43.51031841 11.32975481 47.609375 13.03125 C52.23784116 14.90683759 57.00729189 16.37973452 61.7734375 17.86328125 C68.30042696 19.94472277 74.43185094 22.45790177 80.6015625 25.4375 C83.21704143 26.64001905 85.79861875 27.70654577 88.48046875 28.73828125 C95.41009539 31.48125846 102.03499487 34.84243641 108.6875 38.1875 C109.6886937 38.68946396 109.6886937 38.68946396 110.71011353 39.2015686 C119.74824063 43.74143485 128.65377745 48.36968295 137.17285156 53.83837891 C139.30499207 55.19390062 141.46016246 56.50867051 143.6171875 57.82421875 C153.61571271 63.96416937 162.98248937 70.49856344 172 78 C172.53254395 78.43634766 173.06508789 78.87269531 173.61376953 79.32226562 C207.29441039 106.92096982 207.29441039 106.92096982 208.23828125 116.390625 C208.39918566 122.58967912 208.22106825 126.16121445 204 131 C203.37867188 131.72445312 202.75734375 132.44890625 202.1171875 133.1953125 C170.6803329 169.13924303 125.836221 191.14768769 83.15380859 210.99072266 C81.26688052 211.87493946 79.39210654 212.78499849 77.51953125 213.69921875 C69.61507966 217.51619727 61.48290963 220.38066057 53.1875 223.20703125 C49.00699437 224.63568312 44.87199977 226.16110696 40.74194336 227.72875977 C32.55701049 230.82797468 24.3627208 233.42702279 15.90625 235.671875 C12.17912854 236.6643222 8.47903342 237.73140117 4.78125 238.828125 C3.70963623 239.14587891 2.63802246 239.46363281 1.53393555 239.79101562 C-0.56718525 240.41649516 -2.66733519 241.04524809 -4.76635742 241.67773438 C-9.85043313 243.18437797 -14.7233474 244.43912504 -20 245 C-17.6596491 242.6596491 -15.90633641 242.10401315 -12.79296875 241.01171875 C-11.73819336 240.63789063 -10.68341797 240.2640625 -9.59667969 239.87890625 C-8.47165039 239.48574219 -7.34662109 239.09257812 -6.1875 238.6875 C-3.88381501 237.86933259 -1.58042578 237.0503319 0.72265625 236.23046875 C2.37225342 235.64531494 2.37225342 235.64531494 4.05517578 235.04833984 C21.41333773 228.8689378 38.34062622 221.5803092 54.72363281 213.15576172 C57.33288206 211.83098845 59.95806048 210.54132733 62.5859375 209.25390625 C99.65065347 191.05063173 136.66390987 169.09988533 167.03125 140.8125 C168.71925815 139.25846075 170.43887869 137.84204306 172.25 136.4375 C176.90482621 132.31163131 181.39587955 127.37555814 182.2734375 121.01953125 C182.56786537 114.62138724 180.88785675 110.99574205 177 106 C176.54238281 105.40316406 176.08476562 104.80632812 175.61328125 104.19140625 C172.47464251 100.33045065 168.96138022 97.07581293 165.171875 93.86328125 C162.88880599 91.90460514 160.70133397 89.86239992 158.5 87.8125 C152.32354436 82.24232222 145.67477217 77.34386515 138.96679688 72.44042969 C137.20459537 71.1498402 135.45281987 69.84651503 133.703125 68.5390625 C103.03054693 46.02090153 68.80776852 29.0713041 34 14 C32.79375977 13.46987305 31.58751953 12.93974609 30.34472656 12.39355469 C23.72730603 9.50812408 17.14493126 6.88645757 10.25 4.75 C2.26442308 2.26442308 2.26442308 2.26442308 0 0 Z " fill="#1C54B2" transform="translate(143,230)"/>
<path d="M0 0 C0.928125 0.17144531 1.85625 0.34289062 2.8125 0.51953125 C22.5813197 4.6828017 39.48754389 16.366695 53 31 C52.236875 31.75539063 51.47375 32.51078125 50.6875 33.2890625 C49.21684754 34.77254042 47.7594849 36.27173581 46.375 37.8359375 C45 39.375 45 39.375 42 42 C36.86642828 41.94379301 32.51637249 38.55354395 28.25 36 C18.79344018 30.47549942 9.17062524 25.32735734 -0.5625 20.3125 C-1.27250153 19.94622498 -1.98250305 19.57994995 -2.71401978 19.20257568 C-12.13693674 14.35403241 -21.60853749 9.69034276 -31.39086914 5.59887695 C-36.80057608 3.29913588 -36.80057608 3.29913588 -39 0 C-28.38026611 -5.30986694 -11.11463704 -2.37092122 0 0 Z " fill="#1E70C0" transform="translate(360,233)"/>
<path d="M0 0 C-0.99902344 0.33773438 -1.99804688 0.67546875 -3.02734375 1.0234375 C-4.33086217 1.47357336 -5.63424043 1.92411525 -6.9375 2.375 C-7.59685547 2.59671875 -8.25621094 2.8184375 -8.93554688 3.046875 C-12.67576664 4.12909152 -12.67576664 4.12909152 -15 7 C-12.525 6.505 -12.525 6.505 -10 6 C-10 6.66 -10 7.32 -10 8 C-22.42159619 11.68513886 -34.80352091 14.46343457 -47.5625 16.6875 C-50.05987606 17.13046932 -52.55679287 17.5759092 -55.05345154 18.02290344 C-56.58457198 18.29625037 -58.11616247 18.5669849 -59.64833069 18.83439636 C-63.25210191 19.47021002 -66.81478547 20.17902731 -70.37744141 21.01635742 C-75.38890799 22.14822678 -80.41559557 22.74082763 -85.51953125 23.2890625 C-86.49935471 23.39721283 -87.47917816 23.50536316 -88.48869324 23.61679077 C-90.5498854 23.84275601 -92.61136013 24.06615722 -94.6730957 24.28710938 C-97.79412666 24.6230225 -100.91362977 24.9711524 -104.03320312 25.3203125 C-123.38890573 27.44340945 -123.38890573 27.44340945 -133 27 C-133 26.67 -133 26.34 -133 26 C-132.45512939 25.93530518 -131.91025879 25.87061035 -131.34887695 25.80395508 C-119.13855504 24.33275588 -106.99697929 22.58090184 -94.875 20.5 C-93.69204346 20.29866455 -92.50908691 20.0973291 -91.2902832 19.88989258 C-84.45949476 18.6971241 -77.71660244 17.29862948 -70.97851562 15.65991211 C-67.86937365 14.97105877 -64.7787907 14.50018158 -61.625 14.0625 C-57.06605633 13.39522197 -52.70083452 12.4716352 -48.25390625 11.265625 C-47.61486862 11.09283524 -46.97583099 10.92004547 -46.31742859 10.74201965 C-41.13349723 9.33155948 -35.96690518 7.86080444 -30.80078125 6.38671875 C-28.43634642 5.71452585 -26.07184112 5.04258188 -23.70727539 4.37084961 C-22.09018228 3.90941179 -20.47398787 3.44481452 -18.85864258 2.97729492 C-16.48767173 2.2921898 -14.11345353 1.61958994 -11.73828125 0.94921875 C-11.01852615 0.73786789 -10.29877106 0.52651703 -9.5572052 0.3087616 C-3.41987914 -1.40242025 -3.41987914 -1.40242025 0 0 Z " fill="#2633A8" transform="translate(201,497)"/>
<path d="M0 0 C14.36097168 -0.20779541 28.50872937 0.11108108 42.63549805 2.85180664 C46.76455748 3.64348082 50.82788269 4.21207925 55.02368164 4.56835938 C64.69728567 5.40455798 74.09567838 7.35171338 83.5625 9.4375 C84.62274384 9.66451599 84.62274384 9.66451599 85.70440674 9.89611816 C87.72446316 10.33165189 89.73939855 10.78565619 91.75390625 11.24609375 C92.93283447 11.51091553 94.1117627 11.7757373 95.32641602 12.04858398 C96.20869873 12.36255127 97.09098145 12.67651855 98 13 C98.495 14.485 98.495 14.485 99 16 C100.99665314 17.68538601 100.99665314 17.68538601 103 19 C97.38250321 19.21725126 92.90255587 18.61887123 87.5625 16.8125 C76.24666948 13.2519044 64.64871868 11.16113193 53 9 C51.57276611 8.73123047 51.57276611 8.73123047 50.11669922 8.45703125 C33.49600974 5.34741043 16.76839208 3.13182215 0 1 C0 0.67 0 0.34 0 0 Z " fill="#328DCB" transform="translate(52,189)"/>
<path d="M0 0 C0.99 0.495 0.99 0.495 2 1 C-8.65914023 9.72374078 -19.72866068 17.6861791 -31.1875 25.3125 C-32.11988495 25.93517761 -32.11988495 25.93517761 -33.07110596 26.57043457 C-42.21662047 32.66623943 -51.53933427 38.408013 -61 44 C-63.27187038 45.35243372 -65.54210736 46.70758543 -67.8125 48.0625 C-72.74829932 51 -72.74829932 51 -75 51 C-74.505 48.03 -74.505 48.03 -74 45 C-74.66 44.67 -75.32 44.34 -76 44 C-75.27748047 43.64921387 -74.55496094 43.29842773 -73.81054688 42.93701172 C-48.01255255 30.35987835 -23.69285503 16.20789359 0 0 Z " fill="#EAEFF7" transform="translate(315,390)"/>
<path d="M0 0 C0.99 0.495 0.99 0.495 2 1 C1.34 1.99 0.68 2.98 0 4 C0.99 4.99 0.99 4.99 2 6 C-2.52690321 7.70461321 -7.05592762 9.40343762 -11.58691406 11.09716797 C-13.19606577 11.69921603 -14.80479031 12.30240704 -16.41308594 12.90673828 C-18.83649177 13.81661435 -21.2618034 14.72125109 -23.6875 15.625 C-24.42137939 15.90158447 -25.15525879 16.17816895 -25.91137695 16.46313477 C-37.41308377 20.73195256 -49.25810804 23.99951775 -61.0625 27.3125 C-61.70920654 27.4988501 -62.35591309 27.6852002 -63.0222168 27.87719727 C-64.91967892 28.42363409 -66.821127 28.95617015 -68.72265625 29.48828125 C-69.83390869 29.80321533 -70.94516113 30.11814941 -72.09008789 30.44262695 C-74.89354815 30.9796099 -76.36105291 30.97582933 -79 30 C-78.08412109 29.69819824 -77.16824219 29.39639648 -76.22460938 29.08544922 C-72.74191784 27.93685667 -69.26066908 26.78394065 -65.77978516 25.62988281 C-64.28894887 25.13623687 -62.7977519 24.64367857 -61.30615234 24.15234375 C-44.51148651 18.61838229 -28.22247223 12.38759518 -12.08935547 5.14916992 C-10.1275802 4.27111158 -8.16180904 3.4025773 -6.1953125 2.53515625 C-5.05078613 2.023479 -3.90625977 1.51180176 -2.72705078 0.98461914 C-1.82712402 0.65969482 -0.92719727 0.33477051 0 0 Z " fill="#414EB2" transform="translate(236,466)"/>
<path d="M0 0 C-3.96 1.32 -7.92 2.64 -12 4 C-12 4.99 -12 5.98 -12 7 C-16.78193479 8.79981483 -21.27509567 9.53538308 -26.3125 10.0625 C-31.03893777 10.17186735 -31.03893777 10.17186735 -35 12 C-37.2647503 12.37232139 -39.53936994 12.68486674 -41.81640625 12.97265625 C-42.50629135 13.06002548 -43.19617645 13.14739471 -43.90696716 13.2374115 C-45.3736636 13.42189453 -46.84063966 13.60416562 -48.30786133 13.78442383 C-50.52972466 14.05845765 -52.75019352 14.34218359 -54.97070312 14.62695312 C-56.39836342 14.80528155 -57.82609589 14.98303333 -59.25390625 15.16015625 C-60.54627197 15.32136963 -61.8386377 15.48258301 -63.17016602 15.64868164 C-67.15691981 16.01439457 -71.00015203 16.05971581 -75 16 C-75 15.67 -75 15.34 -75 15 C-74.42609528 14.8858223 -73.85219055 14.77164459 -73.26089478 14.65400696 C-67.1901893 13.44484707 -61.12146185 12.22609515 -55.05371094 11.00219727 C-52.80060636 10.54897735 -50.54703704 10.09806056 -48.29296875 9.6496582 C-33.935769 6.79163023 -19.74578466 3.70032116 -5.77197266 -0.7019043 C-4 -1 -4 -1 0 0 Z " fill="#313BAB" transform="translate(128,489)"/>
<path d="M0 0 C7.43648583 0.60888257 14.52780895 2.12491061 21.78222656 3.84643555 C23.73070465 4.30792992 25.68175625 4.75851415 27.6328125 5.20898438 C34.91274387 6.91821776 42.04913941 8.87256738 49.17822266 11.12768555 C52.53681734 12.16594985 55.87979697 12.99555977 59.3125 13.75 C60.40175781 13.99234375 61.49101562 14.2346875 62.61328125 14.484375 C63.79470703 14.73960937 63.79470703 14.73960937 65 15 C63.02 15.99 63.02 15.99 61 17 C61 17.99 61 18.98 61 20 C53.4673169 17.82175637 46.0452966 15.35755577 38.61968994 12.84124756 C25.84628617 8.51942528 13.01614052 4.53418385 0 1 C0 0.67 0 0.34 0 0 Z " fill="#2EB2E1" transform="translate(166,195)"/>
<path d="M0 0 C2.31 0.66 4.62 1.32 7 2 C7.33 2.66 7.66 3.32 8 4 C5.03 3.505 5.03 3.505 2 3 C1.67 53.16 1.34 103.32 1 155 C0.67 155 0.34 155 0 155 C0 103.85 0 52.7 0 0 Z " fill="#2E50B2" transform="translate(120,234)"/>
<path d="M0 0 C4.37153883 1.75259871 8.51051815 3.81375721 12.6796875 6 C14.01918457 6.70177368 14.01918457 6.70177368 15.38574219 7.41772461 C23.31998184 11.64999723 31.01850253 16.23507539 38.6796875 20.9375 C39.26061157 21.29233459 39.84153564 21.64716919 40.44006348 22.01275635 C42.09155814 23.02428072 43.73732154 24.04514443 45.3828125 25.06640625 C46.33317383 25.65623291 47.28353516 26.24605957 48.26269531 26.85375977 C50.4296875 28.375 50.4296875 28.375 51.4296875 30.375 C47.17355517 28.77520244 43.17158019 26.76808039 39.14453125 24.671875 C38.44759659 24.31160217 37.75066193 23.95132935 37.03260803 23.58013916 C34.80967462 22.43058723 32.58835133 21.27796685 30.3671875 20.125 C12.29871957 10.34942658 12.29871957 10.34942658 -6.5703125 2.375 C-4.2058899 0.0105774 -3.34768128 -0.81402584 0 0 Z " fill="#E6F0F7" transform="translate(229.5703125,253.625)"/>
<path d="M0 0 C-3 2 -3 2 -6 2 C-5.505 3.98 -5.505 3.98 -5 6 C-17.17344014 10.13027433 -29.4336639 13.91151768 -41.8125 17.375 C-42.77373779 17.64997314 -43.73497559 17.92494629 -44.7253418 18.20825195 C-46.07752808 18.5808313 -46.07752808 18.5808313 -47.45703125 18.9609375 C-48.6632312 19.29810791 -48.6632312 19.29810791 -49.89379883 19.64208984 C-52 20 -52 20 -55 19 C-54.25016846 18.72325439 -53.50033691 18.44650879 -52.7277832 18.16137695 C-49.25568854 16.87931941 -45.78409299 15.59591534 -42.3125 14.3125 C-41.13365234 13.87744141 -39.95480469 13.44238281 -38.74023438 12.99414062 C-32.81282845 10.8018124 -26.89151421 8.59407455 -20.984375 6.34765625 C-19.97729492 5.96488525 -18.97021484 5.58211426 -17.93261719 5.18774414 C-13.97299571 3.58405129 -10.15592425 1.73696045 -6.33984375 -0.1796875 C-3.72485104 -1.09646291 -2.55724731 -0.95675304 0 0 Z " fill="#2E38AE" transform="translate(178,455)"/>
<path d="M0 0 C-0.33 0.33 -0.66 0.66 -1 1 C1.475 1.495 1.475 1.495 4 2 C4 2.33 4 2.66 4 3 C-1.63734216 3.69599184 -7.27496309 4.38966671 -12.9128418 5.08129883 C-14.82632946 5.31635638 -16.73974271 5.55202065 -18.65307617 5.78833008 C-45.99961537 9.16471041 -45.99961537 9.16471041 -54.6875 9.0625 C-56.20923828 9.04896484 -56.20923828 9.04896484 -57.76171875 9.03515625 C-58.50035156 9.02355469 -59.23898438 9.01195312 -60 9 C-60 8.67 -60 8.34 -60 8 C-59.45512939 7.93530518 -58.91025879 7.87061035 -58.34887695 7.80395508 C-31.84269301 4.8193192 -31.84269301 4.8193192 -5.77026367 -0.59521484 C-3.57369444 -1.09747823 -2.12028427 -0.68151995 0 0 Z " fill="#3B42AE" transform="translate(128,515)"/>
<path d="M0 0 C-0.99 1.485 -0.99 1.485 -2 3 C-1.34 3.66 -0.68 4.32 0 5 C-9.27340234 8.53048312 -18.551756 11.95795174 -28 15 C-26.61991019 10.85973056 -24.45659607 8.80335223 -20.64990234 6.70385742 C-19.80379395 6.34138916 -18.95768555 5.9789209 -18.0859375 5.60546875 C-17.16039062 5.20779297 -16.23484375 4.81011719 -15.28125 4.40039062 C-13.84265625 3.80000977 -13.84265625 3.80000977 -12.375 3.1875 C-11.40820312 2.76791016 -10.44140625 2.34832031 -9.4453125 1.91601562 C-2.25969033 -1.12984517 -2.25969033 -1.12984517 0 0 Z " fill="#223CA5" transform="translate(238,467)"/>
<path d="M0 0 C4.85158466 -0.20645041 8.93943938 0.34325669 13.6484375 1.4921875 C16.83027328 2.17929489 20.00995893 2.47827776 23.25 2.75390625 C25 3 25 3 26 4 C27.39124735 4.18452333 28.78877264 4.32269658 30.1875 4.4375 C34.05352143 4.82776084 37.33400316 5.67400114 41 7 C43.65716099 7.71148027 46.3256938 8.35447781 49 9 C48.01 10.32 47.02 11.64 46 13 C44.37452358 12.56427343 42.74965187 12.12629102 41.125 11.6875 C40.22007812 11.44386719 39.31515625 11.20023438 38.3828125 10.94921875 C35.71855976 10.2016282 33.08099987 9.40929783 30.4375 8.59375 C24.31032283 6.74593507 18.10253428 5.27886708 11.875 3.8125 C10.72773437 3.53986328 9.58046875 3.26722656 8.3984375 2.98632812 C5.59956836 2.3215967 2.80009556 1.65954251 0 1 C0 0.67 0 0.34 0 0 Z " fill="#509FD3" transform="translate(109,211)"/>
<path d="M0 0 C13.91857259 -0.20139414 27.75543925 0.07788721 41.5 2.4375 C42.22421143 2.55971924 42.94842285 2.68193848 43.69458008 2.80786133 C48.74541166 3.74541166 48.74541166 3.74541166 51 6 C50 7 50 7 47.06811523 7.14453125 C42.29703419 7.0729783 37.62547269 6.37173372 32.91015625 5.6875 C31.4933683 5.4877356 31.4933683 5.4877356 30.04795837 5.28393555 C27.05214368 4.86047824 24.05733249 4.4303432 21.0625 4 C19.02284923 3.71049491 16.98313625 3.42142776 14.94335938 3.1328125 C9.96150529 2.42694151 4.98053982 1.71508291 0 1 C0 0.67 0 0.34 0 0 Z " fill="#3A93D1" transform="translate(52,189)"/>
<path d="M0 0 C6.36927811 0.60801025 12.19032596 2.04793186 18.3125 3.875 C20.16653137 4.41712959 22.02069691 4.95880053 23.875 5.5 C24.75671875 5.75910156 25.6384375 6.01820313 26.546875 6.28515625 C31.01388489 7.58684862 35.50481678 8.79988083 40 10 C39.34 10.33 38.68 10.66 38 11 C38 12.32 38 13.64 38 15 C33.57259752 13.61839923 29.25717066 12.17663946 25.0625 10.1875 C19.5948197 7.65869786 13.8571523 5.91176028 8.11938477 4.10620117 C7.35940186 3.86232666 6.59941895 3.61845215 5.81640625 3.3671875 C5.13006104 3.15175293 4.44371582 2.93631836 3.73657227 2.71435547 C2 2 2 2 0 0 Z " fill="#396BBB" transform="translate(143,230)"/>
<path d="M0 0 C-0.66 0.33 -1.32 0.66 -2 1 C-1.01 1.66 -0.02 2.32 1 3 C-3.40999263 3.57614914 -7.82079074 4.14555277 -12.23242188 4.70898438 C-13.73005088 4.90118655 -15.22745339 5.09516291 -16.72460938 5.29101562 C-18.88873679 5.57379494 -21.05362492 5.84997633 -23.21875 6.125 C-24.51748047 6.29257812 -25.81621094 6.46015625 -27.15429688 6.6328125 C-31.15025418 7.01434626 -34.98992328 7.06241365 -39 7 C-39 6.67 -39 6.34 -39 6 C-34.09093963 4.97366389 -29.17970529 3.95876299 -24.26611328 2.9543457 C-22.59522013 2.61112032 -20.92496176 2.26478941 -19.25537109 1.9152832 C-16.85414552 1.41318279 -14.45085187 0.92232829 -12.046875 0.43359375 C-10.9294693 0.19617714 -10.9294693 0.19617714 -9.78948975 -0.04603577 C-3.3766558 -1.32984732 -3.3766558 -1.32984732 0 0 Z " fill="#676EBF" transform="translate(92,498)"/>
<path d="M0 0 C0.66 0.33 1.32 0.66 2 1 C-3.10078819 5.4206831 -8.29833071 9.70493503 -13.546875 13.94921875 C-15.94449993 15.87858333 -15.94449993 15.87858333 -17.703125 17.76953125 C-19 19 -19 19 -21 19 C-21.20625 19.53625 -21.4125 20.0725 -21.625 20.625 C-23.25141891 23.43426902 -25.27542212 25.30369833 -27.6015625 27.5390625 C-29.19613266 29.20489837 -30.17270218 30.84902568 -31 33 C-31.66 31.68 -32.32 30.36 -33 29 C-26.02577056 21.78295406 -18.87157686 15.2422155 -11 9 C-8.93170861 7.31947259 -6.87249451 5.62822533 -4.8125 3.9375 C-2.40625 1.96875 -2.40625 1.96875 0 0 Z " fill="#297EC7" transform="translate(214,154)"/>
<path d="M0 0 C0.66 0.33 1.32 0.66 2 1 C0.68 1.33 -0.64 1.66 -2 2 C-1.67 2.99 -1.34 3.98 -1 5 C-4.85180418 6.15387809 -8.70681969 7.29664728 -12.5625 8.4375 C-13.64853516 8.76298828 -14.73457031 9.08847656 -15.85351562 9.42382812 C-21.23524756 11.01053936 -26.41235971 12.43081426 -32 13 C-29.60507967 10.60507967 -27.70128489 10.02918182 -24.51171875 8.90625 C-23.41279297 8.51566406 -22.31386719 8.12507813 -21.18164062 7.72265625 C-20.02857422 7.31917969 -18.87550781 6.91570312 -17.6875 6.5 C-15.42032562 5.69861594 -13.15338969 4.89655689 -10.88671875 4.09375 C-9.87826904 3.73990234 -8.86981934 3.38605469 -7.83081055 3.02148438 C-5.95027463 2.34290203 -4.09031486 1.60422421 -2.25708008 0.80664062 C-1.51224365 0.54044922 -0.76740723 0.27425781 0 0 Z " fill="#4D57B9" transform="translate(155,462)"/>
<path d="M0 0 C0.53753906 0.23332031 1.07507813 0.46664063 1.62890625 0.70703125 C-6.81731348 5.81574994 -15.46907575 10.31963926 -24.37109375 14.58203125 C-25.36181885 15.05809814 -26.35254395 15.53416504 -27.37329102 16.0246582 C-31.97259459 18.20529173 -36.47362468 20.26757243 -41.37109375 21.70703125 C-37.66720951 17.14518513 -32.72029874 15.31338892 -27.49609375 12.95703125 C-19.72245471 9.37996516 -12.34320212 5.53810496 -5.0859375 1.0078125 C-2.37109375 -0.29296875 -2.37109375 -0.29296875 0 0 Z " fill="#2E67BA" transform="translate(309.37109375,449.29296875)"/>
<path d="M0 0 C7.65925572 0.67100317 15.00871743 2.1686523 22.5 3.875 C24.28664062 4.25978516 24.28664062 4.25978516 26.109375 4.65234375 C27.23859375 4.90886719 28.3678125 5.16539062 29.53125 5.4296875 C30.55798828 5.65897949 31.58472656 5.88827148 32.64257812 6.12451172 C33.42052734 6.41342285 34.19847656 6.70233398 35 7 C35.495 8.485 35.495 8.485 36 10 C29.27677656 9.44991808 23.29354573 8.09943575 16.875 6.0625 C15.16416577 5.5322188 13.45323012 5.00226468 11.7421875 4.47265625 C10.9387793 4.2214502 10.13537109 3.97024414 9.30761719 3.71142578 C6.21798119 2.75890787 3.11291438 1.87313452 0 1 C0 0.67 0 0.34 0 0 Z " fill="#28AEDE" transform="translate(166,195)"/>
<path d="M0 0 C-0.99902344 0.33773438 -1.99804688 0.67546875 -3.02734375 1.0234375 C-4.33086217 1.47357336 -5.63424043 1.92411525 -6.9375 2.375 C-7.9265332 2.70757812 -7.9265332 2.70757812 -8.93554688 3.046875 C-12.67576664 4.12909152 -12.67576664 4.12909152 -15 7 C-13.35 6.67 -11.7 6.34 -10 6 C-10 6.66 -10 7.32 -10 8 C-14.17737474 9.59138085 -17.53160785 10.21278058 -22 10 C-21.9296875 7.671875 -21.9296875 7.671875 -21 5 C-18.62204195 3.79581664 -16.64129103 2.99835801 -14.125 2.25 C-12.24167969 1.63898438 -12.24167969 1.63898438 -10.3203125 1.015625 C-9.22460938 0.68046875 -8.12890625 0.3453125 -7 0 C-3.86650268 -1.04449911 -3.01031744 -0.93423645 0 0 Z " fill="#1C2DA8" transform="translate(201,497)"/>
<path d="M0 0 C1.17046875 0.10183594 2.3409375 0.20367188 3.546875 0.30859375 C4.43890625 0.39238281 5.3309375 0.47617187 6.25 0.5625 C6.25 0.8925 6.25 1.2225 6.25 1.5625 C1.83452909 2.07344083 -2.5825262 2.56920061 -7 3.0625 C-8.23492187 3.20558594 -9.46984375 3.34867188 -10.7421875 3.49609375 C-18.44952428 4.34795729 -25.99680323 4.7565995 -33.75 4.5625 C-33.75 4.2325 -33.75 3.9025 -33.75 3.5625 C-32.73631348 3.43403687 -32.73631348 3.43403687 -31.70214844 3.30297852 C-28.6344445 2.91279735 -25.5672236 2.51893852 -22.5 2.125 C-21.43652344 1.99029297 -20.37304688 1.85558594 -19.27734375 1.71679688 C-18.25253906 1.58466797 -17.22773437 1.45253906 -16.171875 1.31640625 C-14.75793457 1.13573608 -14.75793457 1.13573608 -13.31542969 0.95141602 C-10.8048151 0.61601641 -10.8048151 0.61601641 -8.61328125 0.0078125 C-5.70228186 -0.68789805 -2.964384 -0.26679456 0 0 Z " fill="#626CBC" transform="translate(101.75,519.4375)"/>
<path d="M0 0 C0.66 0.33 1.32 0.66 2 1 C-0.8523267 3.23152884 -3.70719509 5.45978354 -6.5625 7.6875 C-7.36236328 8.31333984 -8.16222656 8.93917969 -8.98632812 9.58398438 C-22.34718586 20 -22.34718586 20 -25 20 C-25.33 19.01 -25.66 18.02 -26 17 C-24.96101563 16.35933594 -23.92203125 15.71867187 -22.8515625 15.05859375 C-15.07897605 10.24548299 -7.40275109 5.37411257 0 0 Z " fill="#D0E2F1" transform="translate(315,390)"/>
<path d="M0 0 C3.26023324 0.22484367 4.93132641 0.5260489 7.625 2.25 C7.625 2.91 7.625 3.57 7.625 4.25 C9.5850281 5.88676257 9.5850281 5.88676257 11.625 7.25 C6.09822267 7.44392201 1.86885089 6.9979503 -3.375 5.25 C-3.375 4.59 -3.375 3.93 -3.375 3.25 C-4.035 2.92 -4.695 2.59 -5.375 2.25 C-3.375 0.25 -3.375 0.25 0 0 Z " fill="#2888C9" transform="translate(143.375,200.75)"/>
<path d="M0 0 C-0.33 0.66 -0.66 1.32 -1 2 C-2.30195313 2.04898438 -3.60390625 2.09796875 -4.9453125 2.1484375 C-6.67189471 2.22350629 -8.39845622 2.29905233 -10.125 2.375 C-11.40890625 2.42140625 -11.40890625 2.42140625 -12.71875 2.46875 C-17.53346294 2.69096752 -21.43324236 3.35384318 -26 5 C-28.5546875 5.1953125 -28.5546875 5.1953125 -30.875 5.125 C-31.65617188 5.10695313 -32.43734375 5.08890625 -33.2421875 5.0703125 C-33.82226562 5.04710937 -34.40234375 5.02390625 -35 5 C-31.65396184 2.76930789 -28.68452543 2.09846225 -24.8125 1.375 C-24.11576172 1.24311279 -23.41902344 1.11122559 -22.70117188 0.9753418 C-15.13007082 -0.33536695 -7.65532745 -0.27485883 0 0 Z " fill="#3ABCE6" transform="translate(270,47)"/>
<path d="M0 0 C2.31 0.66 4.62 1.32 7 2 C7.33 2.66 7.66 3.32 8 4 C5.03 3.505 5.03 3.505 2 3 C2.01160156 4.25554687 2.02320312 5.51109375 2.03515625 6.8046875 C2.08925203 15.27321259 2.10340178 23.58656141 1 32 C0.67 32 0.34 32 0 32 C0 21.44 0 10.88 0 0 Z " fill="#1E5BB9" transform="translate(120,234)"/>
<path d="M0 0 C0 0.99 0 1.98 0 3 C-1.89492006 3.33848652 -3.79098466 3.67056911 -5.6875 4 C-6.74324219 4.185625 -7.79898438 4.37125 -8.88671875 4.5625 C-11.64904062 4.95068074 -14.21742043 5.08259976 -17 5 C-13.93911509 1.00754142 -10.92399009 0.20633349 -6.21875 -0.80078125 C-3.88195556 -1.01059906 -2.22376139 -0.70250644 0 0 Z " fill="#212BA8" transform="translate(106,495)"/>
<path d="M0 0 C1.81108163 0.90878648 3.5671458 1.92622498 5.3046875 2.96875 C2.45802772 4.39207989 0.96901423 3.49784835 -2.0703125 2.65625 C-8.23230633 1.02996107 -14.39731871 -0.08208427 -20.6953125 -1.03125 C-14.8495097 -4.88021917 -6.13378363 -2.34683895 0 0 Z " fill="#36D9F1" transform="translate(441.6953125,77.03125)"/>
<path d="M0 0 C3.31492767 3.72307192 4.61250273 7.98945249 6.1875 12.625 C6.46013672 13.40101563 6.73277344 14.17703125 7.01367188 14.9765625 C9 20.71152491 9 20.71152491 9 23 C8.34 23 7.68 23 7 23 C6.63648438 21.83984375 6.63648438 21.83984375 6.265625 20.65625 C4.68279712 15.73730796 3.13534528 11.00055653 0.6875 6.4375 C-1 3 -1 3 0 0 Z " fill="#29DBF5" transform="translate(545,133)"/>
<path d="M0 0 C-15.11731844 9.49441341 -15.11731844 9.49441341 -21 12 C-21.99 11.67 -22.98 11.34 -24 11 C-20.57204403 8.96263414 -17.13124835 6.94803801 -13.6875 4.9375 C-12.71103516 4.35677734 -11.73457031 3.77605469 -10.72851562 3.17773438 C-9.79072266 2.63310547 -8.85292969 2.08847656 -7.88671875 1.52734375 C-7.02264404 1.01937256 -6.15856934 0.51140137 -5.26831055 -0.01196289 C-3 -1 -3 -1 0 0 Z " fill="#2C67B9" transform="translate(298,436)"/>
<path d="M0 0 C-2.86573934 1.57026813 -5.41552896 2.41455903 -8.625 3 C-9.49125 3.16242188 -10.3575 3.32484375 -11.25 3.4921875 C-12.61125 3.74355469 -12.61125 3.74355469 -14 4 C-15.87558578 4.37205913 -17.75061693 4.74692842 -19.625 5.125 C-21.08333333 5.41666667 -22.54166667 5.70833333 -24 6 C-24 5.34 -24 4.68 -24 4 C-21.50276548 3.32114013 -19.00303859 2.65682573 -16.5 2 C-15.80390625 1.80921875 -15.1078125 1.6184375 -14.390625 1.421875 C-9.4587081 0.14322988 -5.09419909 -0.18357474 0 0 Z " fill="#2C37A8" transform="translate(148,488)"/>
<path d="M0 0 C3.90961133 -0.26283101 5.96370235 0.22752524 9.20703125 2.40625 C9.95791016 2.90253906 10.70878906 3.39882813 11.48242188 3.91015625 C12.63581055 4.69712891 12.63581055 4.69712891 13.8125 5.5 C14.60076172 6.02464844 15.38902344 6.54929687 16.20117188 7.08984375 C18.14118305 8.38318453 20.07349525 9.68666167 22 11 C21.01 11.495 21.01 11.495 20 12 C17.93701172 11.10375977 17.93701172 11.10375977 15.4296875 9.69140625 C14.53378906 9.19189453 13.63789063 8.69238281 12.71484375 8.17773438 C11.77769531 7.64470703 10.84054687 7.11167969 9.875 6.5625 C8.93011719 6.03333984 7.98523438 5.50417969 7.01171875 4.95898438 C4.67037095 3.64641061 2.3334713 2.32651055 0 1 C0 0.67 0 0.34 0 0 Z " fill="#C9E0EE" transform="translate(259,272)"/>
<path d="M0 0 C1.875 1.375 1.875 1.375 3 3 C3 3.66 3 4.32 3 5 C-4.50769231 4.38461538 -4.50769231 4.38461538 -7 2.4375 C-7.33 1.963125 -7.66 1.48875 -8 1 C-5.20129973 -0.39935013 -3.09501208 -0.25265405 0 0 Z " fill="#2385C7" transform="translate(162,221)"/>
<path d="M0 0 C-3.63622792 2.05001625 -7.49571404 3.11061921 -11.5 4.1875 C-12.49580078 4.47270508 -12.49580078 4.47270508 -13.51171875 4.76367188 C-17.09682666 5.73329687 -19.46503286 6.08115282 -23 5 C-20.10875777 3.96419671 -17.21320686 2.9461498 -14.3125 1.9375 C-13.49587891 1.64294922 -12.67925781 1.34839844 -11.83789062 1.04492188 C-4.32355667 -1.54098252 -4.32355667 -1.54098252 0 0 Z " fill="#979ED1" transform="translate(180,491)"/>
<path d="M0 0 C0.79921875 0.01804687 1.5984375 0.03609375 2.421875 0.0546875 C3.02515625 0.07789063 3.6284375 0.10109375 4.25 0.125 C4.25 0.455 4.25 0.785 4.25 1.125 C3.6209375 1.16496094 2.991875 1.20492188 2.34375 1.24609375 C-4.82711767 2.12085321 -7.88929492 4.63549996 -12.3515625 10.2265625 C-12.81304687 10.85304688 -13.27453125 11.47953125 -13.75 12.125 C-14.08 11.135 -14.41 10.145 -14.75 9.125 C-13.67578125 7.37109375 -13.67578125 7.37109375 -12.0625 5.5625 C-11.54300781 4.96308594 -11.02351562 4.36367188 -10.48828125 3.74609375 C-7.16581895 0.64761767 -4.50077082 -0.13237561 0 0 Z " fill="#2AA9DD" transform="translate(207.75,281.875)"/>
<path d="M0 0 C0 0.66 0 1.32 0 2 C0.66 2.66 1.32 3.32 2 4 C-1.96 5.32 -5.92 6.64 -10 8 C-8.87224426 4.61673278 -7.64296752 3.33203016 -5 1 C-2 0 -2 0 0 0 Z " fill="#273CAE" transform="translate(220,474)"/>
<path d="M0 0 C1.485 0.99 1.485 0.99 3 2 C3 2.99 3 3.98 3 5 C3.99 5 4.98 5 6 5 C6.33 6.98 6.66 8.96 7 11 C8.65 10.67 10.3 10.34 12 10 C10.6875 11.5 10.6875 11.5 9 13 C8.01 13 7.02 13 6 13 C4.99491199 11.21118264 3.99607264 9.41885304 3 7.625 C2.1646875 6.12839844 2.1646875 6.12839844 1.3125 4.6015625 C0 2 0 2 0 0 Z " fill="#1B25A1" transform="translate(138,444)"/>
<path d="M0 0 C7.52592433 0.6377902 14.67098882 2.19889833 22 4 C21.34 4.66 20.68 5.32 20 6 C13.09117605 5.69294116 6.53160326 3.11172136 0 1 C0 0.67 0 0.34 0 0 Z " fill="#5BC6E7" transform="translate(166,195)"/>
<path d="M0 0 C-0.33 0.99 -0.66 1.98 -1 3 C-3.88211302 3.96070434 -5.69850044 4.10581883 -8.6875 4.0625 C-9.89986328 4.04896484 -9.89986328 4.04896484 -11.13671875 4.03515625 C-12.05904297 4.01775391 -12.05904297 4.01775391 -13 4 C-11 1 -11 1 -8.1875 0.3125 C-5.42559682 0.04172518 -2.77147648 -0.08151401 0 0 Z " fill="#1723A1" transform="translate(139,513)"/>
<path d="M0 0 C-0.33 1.98 -0.66 3.96 -1 6 C-4.02419525 5.41196203 -7.01758453 4.77321882 -10 4 C-10 3.34 -10 2.68 -10 2 C-8.7090864 1.66376204 -7.41723903 1.33110751 -6.125 1 C-5.40570313 0.814375 -4.68640625 0.62875 -3.9453125 0.4375 C-2 0 -2 0 0 0 Z " fill="#DCE2F2" transform="translate(245,490)"/>
<path d="M0 0 C-4.76867078 2.70685418 -9.57170004 5.34648387 -14.4375 7.875 C-15.67306641 8.52082031 -15.67306641 8.52082031 -16.93359375 9.1796875 C-17.61550781 9.45039063 -18.29742187 9.72109375 -19 10 C-19.66 9.67 -20.32 9.34 -21 9 C-18.77312024 7.70425129 -16.54366825 6.41332692 -14.3125 5.125 C-13.68666016 4.76019531 -13.06082031 4.39539063 -12.41601562 4.01953125 C-2.91012774 -1.45506387 -2.91012774 -1.45506387 0 0 Z " fill="#2E58B2" transform="translate(267,453)"/>
<path d="M0 0 C-0.99 0.495 -0.99 0.495 -2 1 C-1.01 1.66 -0.02 2.32 1 3 C-3.62 3 -8.24 3 -13 3 C-12.01 2.67 -11.02 2.34 -10 2 C-10 1.34 -10 0.68 -10 0 C-6.33694766 -0.74926071 -3.57644848 -1.2380014 0 0 Z " fill="#4A52B4" transform="translate(92,498)"/>
<path d="M0 0 C-1.07543783 0.98783194 -2.16073217 1.96493943 -3.25 2.9375 C-4.15492188 3.75541016 -4.15492188 3.75541016 -5.078125 4.58984375 C-7.08467305 6.06212799 -8.57002449 6.57529189 -11 7 C-10.67 6.01 -10.34 5.02 -10 4 C-10.66 3.67 -11.32 3.34 -12 3 C-10.3789897 2.30314502 -8.75303934 1.61777139 -7.125 0.9375 C-6.22007812 0.55464844 -5.31515625 0.17179687 -4.3828125 -0.22265625 C-2 -1 -2 -1 0 0 Z " fill="#3D50B7" transform="translate(215,477)"/>
<path d="M0 0 C-0.66 1.32 -1.32 2.64 -2 4 C-1.01 4.33 -0.02 4.66 1 5 C-3.02992782 4.44687265 -7.02022924 3.8441938 -11 3 C-8.21756596 -1.17365106 -4.53441502 -0.22300402 0 0 Z " fill="#3990CE" transform="translate(111,194)"/>
<path d="M0 0 C-2.22552258 1.15341698 -4.45495969 2.29781159 -6.6875 3.4375 C-7.62625977 3.92573242 -7.62625977 3.92573242 -8.58398438 4.42382812 C-12.03713639 6.17752313 -15.15193519 7.47760497 -19 8 C-19 7.34 -19 6.68 -19 6 C-16.2120519 4.80303299 -13.42025583 3.61716986 -10.625 2.4375 C-9.8309375 2.09525391 -9.036875 1.75300781 -8.21875 1.40039062 C-7.45820313 1.08134766 -6.69765625 0.76230469 -5.9140625 0.43359375 C-4.8614624 -0.01415405 -4.8614624 -0.01415405 -3.78759766 -0.47094727 C-2 -1 -2 -1 0 0 Z " fill="#2F4BB2" transform="translate(194,465)"/>
<path d="M0 0 C-3.10275737 2.06850491 -5.4099217 2.78558082 -9 3.6875 C-10.051875 3.95949219 -11.10375 4.23148437 -12.1875 4.51171875 C-15 5 -15 5 -18 4 C-15.94409546 3.13007846 -13.87994664 2.27962311 -11.8125 1.4375 C-10.66394531 0.96183594 -9.51539063 0.48617188 -8.33203125 -0.00390625 C-4.94860873 -1.01536316 -3.31583059 -1.04283184 0 0 Z " fill="#7C86C9" transform="translate(141,470)"/>
<path d="M0 0 C5.50808397 0.59015185 10.64878069 1.56663769 16 3 C15.67 3.99 15.34 4.98 15 6 C4.44191344 2.92482916 4.44191344 2.92482916 0 1 C0 0.67 0 0.34 0 0 Z " fill="#5C80C5" transform="translate(143,230)"/>
<path d="M0 0 C0.66 0.33 1.32 0.66 2 1 C1.50628906 1.40992188 1.01257813 1.81984375 0.50390625 2.2421875 C-0.13675781 2.78101563 -0.77742187 3.31984375 -1.4375 3.875 C-2.07558594 4.40867188 -2.71367187 4.94234375 -3.37109375 5.4921875 C-5.10805004 6.9222757 -5.10805004 6.9222757 -6 9 C-7.65 9 -9.3 9 -11 9 C-7.56638098 5.36440339 -4.2026393 2.63886654 0 0 Z " fill="#1F72C1" transform="translate(256,197)"/>
<path d="M0 0 C0.66 0 1.32 0 2 0 C1.00956295 4.83628305 0.04301154 9.47618873 -2 14 C-2.33 14 -2.66 14 -3 14 C-3.34615998 8.34605369 -2.43425238 4.96993194 0 0 Z " fill="#1D73C1" transform="translate(127,157)"/>
<path d="M0 0 C-2.87078299 1.91385532 -5.33411656 2.96432952 -8.5625 4.125 C-9.53316406 4.47820312 -10.50382813 4.83140625 -11.50390625 5.1953125 C-14 6 -14 6 -16 6 C-15.67 5.01 -15.34 4.02 -15 3 C-12.890625 2.05078125 -12.890625 2.05078125 -10.25 1.3125 C-9.38890625 1.06113281 -8.5278125 0.80976563 -7.640625 0.55078125 C-5.01182147 0.00246572 -2.67647662 -0.10108994 0 0 Z " fill="#2D3CAB" transform="translate(151,481)"/>
<path d="M0 0 C2.66184973 2.66184973 3.10848803 5.34187787 4.12109375 8.90625 C4.91769717 11.34415648 4.91769717 11.34415648 8 13 C8 13.66 8 14.32 8 15 C3.76089421 13.48603365 2.06361144 10.90612165 0 7 C-0.25 3.125 -0.25 3.125 0 0 Z " fill="#242EA8" transform="translate(192,395)"/>
<path d="M0 0 C0.90105469 0.01804687 1.80210937 0.03609375 2.73046875 0.0546875 C3.41753906 0.07789063 4.10460937 0.10109375 4.8125 0.125 C4.8125 1.115 4.8125 2.105 4.8125 3.125 C3.1625 3.455 1.5125 3.785 -0.1875 4.125 C-0.1875 3.465 -0.1875 2.805 -0.1875 2.125 C-2.8275 2.125 -5.4675 2.125 -8.1875 2.125 C-4.87379 -0.08414 -3.8428979 -0.09981553 0 0 Z " fill="#3F49B0" transform="translate(138.1875,511.875)"/>
<path d="M0 0 C4.95 0.33 9.9 0.66 15 1 C15 1.33 15 1.66 15 2 C4.44191344 3.51708428 4.44191344 3.51708428 0 1 C0 0.67 0 0.34 0 0 Z " fill="#479AD2" transform="translate(129,215)"/>
<path d="M0 0 C2.04371546 1.677033 2.92353251 2.53872837 3.36328125 5.19140625 C3.34652344 5.97386719 3.32976562 6.75632812 3.3125 7.5625 C3.30863281 8.34753906 3.30476563 9.13257813 3.30078125 9.94140625 C3 12 3 12 1 14 C1.020625 12.989375 1.04125 11.97875 1.0625 10.9375 C1.00312266 7.19672743 0.60204915 3.68755102 0 0 Z " fill="#34D6F2" transform="translate(480,342)"/>
<path d="M0 0 C1.45922693 0.11409593 2.91740598 0.24165544 4.375 0.375 C5.59316406 0.47941406 5.59316406 0.47941406 6.8359375 0.5859375 C9 1 9 1 11 3 C9.01432292 2.67447917 7.02864583 2.34895833 5.04296875 2.0234375 C2.68244176 1.80422152 2.68244176 1.80422152 0 4 C0 2.68 0 1.36 0 0 Z " fill="#0FA5D7" transform="translate(227,211)"/>
<path d="M0 0 C-0.66 1.32 -1.32 2.64 -2 4 C-4.31 4 -6.62 4 -9 4 C-4.5 0 -4.5 0 0 0 Z " fill="#2133A7" transform="translate(205,481)"/>
<path d="M0 0 C-0.33 0.66 -0.66 1.32 -1 2 C-3.64860427 2.59355614 -6.29197322 2.74209269 -9 3 C-9 2.34 -9 1.68 -9 1 C-5.64919071 -1.10976881 -3.77897651 -1.0497157 0 0 Z " fill="#151C9E" transform="translate(162,463)"/>
<path d="M0 0 C0.66 0.33 1.32 0.66 2 1 C0.68 1.33 -0.64 1.66 -2 2 C-1.67 2.99 -1.34 3.98 -1 5 C-2.98 5 -4.96 5 -7 5 C-7 4.34 -7 3.68 -7 3 C-4.69631264 1.93347808 -2.35981813 0.93578995 0 0 Z " fill="#4049B2" transform="translate(155,462)"/>
<path d="M0 0 C-0.66 1.32 -1.32 2.64 -2 4 C-4.475 3.01 -4.475 3.01 -7 2 C-5.26578631 -1.46842738 -3.40984787 -1.13661596 0 0 Z " fill="#272FA6" transform="translate(166,460)"/>
<path d="M0 0 C4.81430721 -0.56638908 7.20307814 1.17438373 11 4 C8 5 8 5 5.95703125 4.22265625 C5.24933594 3.83980469 4.54164063 3.45695312 3.8125 3.0625 C3.09707031 2.68222656 2.38164062 2.30195313 1.64453125 1.91015625 C1.10183594 1.60980469 0.55914062 1.30945313 0 1 C0 0.67 0 0.34 0 0 Z " fill="#D1E6F3" transform="translate(259,272)"/>
<path d="M0 0 C3.17462943 2.40242227 5.85751741 4.61713276 8 8 C8 8.66 8 9.32 8 10 C4.69713914 8.89904638 4.21489099 8.3103981 2.3125 5.5625 C1.65701172 4.63630859 1.65701172 4.63630859 0.98828125 3.69140625 C0 2 0 2 0 0 Z " fill="#24DEF7" transform="translate(525,103)"/>
<path d="M0 0 C3.59391114 1.33488128 6.75490696 2.96022723 10 5 C9.01 5.495 9.01 5.495 8 6 C6.0546875 5.22265625 6.0546875 5.22265625 3.875 4.0625 C3.15054688 3.68222656 2.42609375 3.30195312 1.6796875 2.91015625 C1.12539062 2.60980469 0.57109375 2.30945313 0 2 C0 1.34 0 0.68 0 0 Z " fill="#303EAB" transform="translate(206,510)"/>
<path d="M0 0 C0.66 0 1.32 0 2 0 C2 0.99 2 1.98 2 3 C2.66 3.66 3.32 4.32 4 5 C3.01 5.66 2.02 6.32 1 7 C-1 4 -1 4 -0.625 1.8125 C-0.41875 1.214375 -0.2125 0.61625 0 0 Z " fill="#15229E" transform="translate(132,427)"/>
<path d="M0 0 C2.5 1.1875 2.5 1.1875 4.5 3.1875 C-2.25 2.4375 -2.25 2.4375 -4.5 0.1875 C-2.5 -0.8125 -2.5 -0.8125 0 0 Z " fill="#DDECF5" transform="translate(257.5,268.8125)"/>
<path d="M0 0 C0.86625 0.556875 0.86625 0.556875 1.75 1.125 C-0.25 3.125 -0.25 3.125 -2.25 4.125 C-3.57 3.135 -4.89 2.145 -6.25 1.125 C-2.80384615 -1.09038462 -2.80384615 -1.09038462 0 0 Z " fill="#DAE8F3" transform="translate(229.25,253.875)"/>
<path d="M0 0 C1.32 0.33 2.64 0.66 4 1 C3.67 1.99 3.34 2.98 3 4 C1.35 3.67 -0.3 3.34 -2 3 C-1.34 2.01 -0.68 1.02 0 0 Z " fill="#12209F" transform="translate(152,509)"/>
<path d="M0 0 C-1.15173355 2.46800047 -2.04783565 4.04783565 -4 6 C-4.99 5.67 -5.98 5.34 -7 5 C-2.25 0 -2.25 0 0 0 Z " fill="#26A4D6" transform="translate(373,377)"/>
<path d="M0 0 C2.97 0.495 2.97 0.495 6 1 C5.01 2.32 4.02 3.64 3 5 C1.35 4.67 -0.3 4.34 -2 4 C-1.34 2.68 -0.68 1.36 0 0 Z " fill="#459BD5" transform="translate(152,219)"/>
</svg>
